<?xml version="1.0" encoding="UTF-8" standalone="no"?>
<!-- Created with Inkscape (http://www.inkscape.org/) -->

<svg
   xmlns:dc="http://purl.org/dc/elements/1.1/"
   xmlns:cc="http://creativecommons.org/ns#"
   xmlns:rdf="http://www.w3.org/1999/02/22-rdf-syntax-ns#"
   xmlns:svg="http://www.w3.org/2000/svg"
   xmlns="http://www.w3.org/2000/svg"
   xmlns:sodipodi="http://sodipodi.sourceforge.net/DTD/sodipodi-0.dtd"
   xmlns:inkscape="http://www.inkscape.org/namespaces/inkscape"
   id="svg2"
   version="1.1"
   inkscape:version="0.91 r13725"
   xml:space="preserve"
   width="694.83752"
   height="426.875"
   viewBox="0 0 694.83752 426.875"
   sodipodi:docname="archdetailed.svg"><metadata
     id="metadata8"><rdf:RDF><cc:Work
         rdf:about=""><dc:format>image/svg+xml</dc:format><dc:type
           rdf:resource="http://purl.org/dc/dcmitype/StillImage" /><dc:title></dc:title></cc:Work></rdf:RDF></metadata><defs
     id="defs6" /><sodipodi:namedview
     pagecolor="#ffffff"
     bordercolor="#666666"
     borderopacity="1"
     objecttolerance="10"
     gridtolerance="10"
     guidetolerance="10"
     inkscape:pageopacity="0"
     inkscape:pageshadow="2"
     inkscape:window-width="640"
     inkscape:window-height="480"
     id="namedview4"
     showgrid="false"
     inkscape:zoom="0.52674185"
     inkscape:cx="347.41876"
     inkscape:cy="213.4375"
     inkscape:window-x="49"
     inkscape:window-y="24"
     inkscape:window-maximized="0"
     inkscape:current-layer="g10" /><g
     id="g10"
     inkscape:groupmode="layer"
     inkscape:label="ink_ext_XXXXXX"
     transform="matrix(1.25,0,0,-1.25,0,426.875)"><g
       id="g12"
       transform="scale(0.1,0.1)"><path
         d="m 3947.13,1867.13 640,0 0,640 -640,0 0,-640 z"
         style="fill:none;stroke:#000000;stroke-width:4;stroke-linecap:butt;stroke-linejoin:round;stroke-miterlimit:10;stroke-dasharray:none;stroke-opacity:1"
         id="path14"
         inkscape:connector-curvature="0" /><path
         d="m 2667.13,1867.13 640,0 0,640 -640,0 0,-640 z"
         style="fill:none;stroke:#000000;stroke-width:4;stroke-linecap:butt;stroke-linejoin:round;stroke-miterlimit:10;stroke-dasharray:none;stroke-opacity:1"
         id="path16"
         inkscape:connector-curvature="0" /><path
         d="m 1387.13,1867.13 640,0 0,640 -640,0 0,-640 z"
         style="fill:none;stroke:#000000;stroke-width:4;stroke-linecap:butt;stroke-linejoin:round;stroke-miterlimit:10;stroke-dasharray:none;stroke-opacity:1"
         id="path18"
         inkscape:connector-curvature="0" /><path
         d="m 2667.13,587.129 640,0 0,640 -640,0 0,-640 z"
         style="fill:none;stroke:#000000;stroke-width:4;stroke-linecap:butt;stroke-linejoin:round;stroke-miterlimit:10;stroke-dasharray:none;stroke-opacity:1"
         id="path20"
         inkscape:connector-curvature="0" /><path
         d="m 4267.13,1867.13 -1280,-320"
         style="fill:none;stroke:#000000;stroke-width:4;stroke-linecap:butt;stroke-linejoin:round;stroke-miterlimit:10;stroke-dasharray:none;stroke-opacity:1"
         id="path22"
         inkscape:connector-curvature="0" /><path
         d="m 2987.13,1547.13 73.57,-5.64 -11.31,45.23"
         style="fill:#000000;fill-opacity:1;fill-rule:evenodd;stroke:none"
         id="path24"
         inkscape:connector-curvature="0" /><path
         d="m 2987.13,1547.13 73.57,-5.64 -11.31,45.23 -62.26,-39.59 z"
         style="fill:none;stroke:#000000;stroke-width:4;stroke-linecap:butt;stroke-linejoin:round;stroke-miterlimit:10;stroke-dasharray:none;stroke-opacity:1"
         id="path26"
         inkscape:connector-curvature="0" /><path
         d="m 2987.13,1867.13 0,-320"
         style="fill:none;stroke:#000000;stroke-width:4;stroke-linecap:butt;stroke-linejoin:round;stroke-miterlimit:10;stroke-dasharray:none;stroke-opacity:1"
         id="path28"
         inkscape:connector-curvature="0" /><path
         d="m 2987.13,1547.13 23.32,70 -46.63,0"
         style="fill:#000000;fill-opacity:1;fill-rule:evenodd;stroke:none"
         id="path30"
         inkscape:connector-curvature="0" /><path
         d="m 2987.13,1547.13 23.32,70 -46.63,0 23.31,-70 z"
         style="fill:none;stroke:#000000;stroke-width:4;stroke-linecap:butt;stroke-linejoin:round;stroke-miterlimit:10;stroke-dasharray:none;stroke-opacity:1"
         id="path32"
         inkscape:connector-curvature="0" /><path
         d="m 1707.13,1867.13 1280,-320"
         style="fill:none;stroke:#000000;stroke-width:4;stroke-linecap:butt;stroke-linejoin:round;stroke-miterlimit:10;stroke-dasharray:none;stroke-opacity:1"
         id="path34"
         inkscape:connector-curvature="0" /><path
         d="m 2987.13,1547.13 -62.25,39.59 -11.31,-45.23"
         style="fill:#000000;fill-opacity:1;fill-rule:evenodd;stroke:none"
         id="path36"
         inkscape:connector-curvature="0" /><path
         d="m 2987.13,1547.13 -62.25,39.59 -11.31,-45.23 73.56,5.64 z"
         style="fill:none;stroke:#000000;stroke-width:4;stroke-linecap:butt;stroke-linejoin:round;stroke-miterlimit:10;stroke-dasharray:none;stroke-opacity:1"
         id="path38"
         inkscape:connector-curvature="0" /><path
         d="m 2987.13,1547.13 0,-320"
         style="fill:none;stroke:#000000;stroke-width:4;stroke-linecap:butt;stroke-linejoin:round;stroke-miterlimit:10;stroke-dasharray:none;stroke-opacity:1"
         id="path40"
         inkscape:connector-curvature="0" /><path
         d="m 2987.13,1227.13 23.32,70 -46.63,0"
         style="fill:#000000;fill-opacity:1;fill-rule:evenodd;stroke:none"
         id="path42"
         inkscape:connector-curvature="0" /><path
         d="m 2987.13,1227.13 23.32,70 -46.63,0 23.31,-70 z"
         style="fill:none;stroke:#000000;stroke-width:4;stroke-linecap:butt;stroke-linejoin:round;stroke-miterlimit:10;stroke-dasharray:none;stroke-opacity:1"
         id="path44"
         inkscape:connector-curvature="0" /><path
         d="M 2987.13,587.129 C 2368.57,-119.789 1294.05,-191.43 587.133,427.129 -119.789,1045.69 -191.426,2120.21 427.133,2827.13 902.395,3370.28 1668.7,3554.35 2338.8,3286.3"
         style="fill:none;stroke:#000000;stroke-width:4;stroke-linecap:butt;stroke-linejoin:round;stroke-miterlimit:10;stroke-dasharray:none;stroke-opacity:1"
         id="path46"
         inkscape:connector-curvature="0" /><path
         d="m 2338.8,3286.3 -56.34,47.64 -17.3,-43.28"
         style="fill:#000000;fill-opacity:1;fill-rule:evenodd;stroke:none"
         id="path48"
         inkscape:connector-curvature="0" /><path
         d="m 2338.8,3286.3 -56.34,47.64 -17.3,-43.28 73.64,-4.36 z"
         style="fill:none;stroke:#000000;stroke-width:4;stroke-linecap:butt;stroke-linejoin:round;stroke-miterlimit:10;stroke-dasharray:none;stroke-opacity:1"
         id="path50"
         inkscape:connector-curvature="0" /><path
         d="m 2347.13,3307.13 -640,-800"
         style="fill:none;stroke:#000000;stroke-width:4;stroke-linecap:butt;stroke-linejoin:round;stroke-miterlimit:10;stroke-dasharray:none;stroke-opacity:1"
         id="path52"
         inkscape:connector-curvature="0" /><path
         d="m 1707.13,2507.13 61.93,40.1 -36.4,29.12"
         style="fill:#000000;fill-opacity:1;fill-rule:evenodd;stroke:none"
         id="path54"
         inkscape:connector-curvature="0" /><path
         d="m 1707.13,2507.13 61.93,40.1 -36.4,29.12 -25.53,-69.22 z"
         style="fill:none;stroke:#000000;stroke-width:4;stroke-linecap:butt;stroke-linejoin:round;stroke-miterlimit:10;stroke-dasharray:none;stroke-opacity:1"
         id="path56"
         inkscape:connector-curvature="0" /><path
         d="m 2347.13,3307.13 640,-800"
         style="fill:none;stroke:#000000;stroke-width:4;stroke-linecap:butt;stroke-linejoin:round;stroke-miterlimit:10;stroke-dasharray:none;stroke-opacity:1"
         id="path58"
         inkscape:connector-curvature="0" /><path
         d="m 2987.13,2507.13 -25.52,69.22 -36.41,-29.12"
         style="fill:#000000;fill-opacity:1;fill-rule:evenodd;stroke:none"
         id="path60"
         inkscape:connector-curvature="0" /><path
         d="m 2987.13,2507.13 -25.52,69.22 -36.41,-29.12 61.93,-40.1 z"
         style="fill:none;stroke:#000000;stroke-width:4;stroke-linecap:butt;stroke-linejoin:round;stroke-miterlimit:10;stroke-dasharray:none;stroke-opacity:1"
         id="path62"
         inkscape:connector-curvature="0" /><path
         d="m 2347.13,3307.13 1920,-800"
         style="fill:none;stroke:#000000;stroke-width:4;stroke-linecap:butt;stroke-linejoin:round;stroke-miterlimit:10;stroke-dasharray:none;stroke-opacity:1"
         id="path64"
         inkscape:connector-curvature="0" /><path
         d="m 4267.13,2507.13 -55.65,48.44 -17.93,-43.03"
         style="fill:#000000;fill-opacity:1;fill-rule:evenodd;stroke:none"
         id="path66"
         inkscape:connector-curvature="0" /><path
         d="m 4267.13,2507.13 -55.65,48.44 -17.93,-43.03 73.58,-5.41 z"
         style="fill:none;stroke:#000000;stroke-width:4;stroke-linecap:butt;stroke-linejoin:round;stroke-miterlimit:10;stroke-dasharray:none;stroke-opacity:1"
         id="path68"
         inkscape:connector-curvature="0" /><g
         id="g70"
         transform="scale(10,10)"><text
           transform="matrix(1,0,0,-1,154.713,218.713)"
           style="font-variant:normal;font-weight:normal;font-size:9.96259975px;font-family:CMR10;-inkscape-font-specification:CMR10;writing-mode:lr-tb;fill:#000000;fill-opacity:1;fill-rule:nonzero;stroke:none"
           id="text72"><tspan
             x="0 7.192997 12.72224 16.617617 21.041012 26.02231 127.99998 135.19298 140.72223 144.6176 149.041 154.02229 255.99997 263.19296 268.7222 272.61758 277.04099 282.02228"
             y="0"
             sodipodi:role="line"
             id="tspan74">ThreadThreadThread</tspan><tspan
             x="128 135.19299 140.72224 144.61761 149.04102 154.02231"
             y="128"
             sodipodi:role="line"
             id="tspan76">Thread</tspan></text>
</g><path
         d="M 1387.13,1227.13 C 1298.77,962.031 1012.23,818.762 747.133,907.129 482.039,995.5 338.77,1282.03 427.133,1547.13 c 88.367,265.1 374.906,408.37 639.997,320 206.62,-68.87 345.96,-262.22 345.96,-480"
         style="fill:none;stroke:#000000;stroke-width:4;stroke-linecap:butt;stroke-linejoin:round;stroke-miterlimit:10;stroke-dasharray:none;stroke-opacity:1"
         id="path78"
         inkscape:connector-curvature="0" /><path
         d="m 1413.09,1387.13 23.31,70 -46.61,0"
         style="fill:#000000;fill-opacity:1;fill-rule:evenodd;stroke:none"
         id="path80"
         inkscape:connector-curvature="0" /><path
         d="m 1413.09,1387.13 23.31,70 -46.61,0 23.3,-70 z"
         style="fill:none;stroke:#000000;stroke-width:4;stroke-linecap:butt;stroke-linejoin:round;stroke-miterlimit:10;stroke-dasharray:none;stroke-opacity:1"
         id="path82"
         inkscape:connector-curvature="0" /><g
         id="g84"
         transform="scale(10,10)"><text
           transform="matrix(1,0,0,-1,58.7133,138.713)"
           style="font-variant:normal;font-weight:normal;font-size:17.2154007px;font-family:CMR17;-inkscape-font-specification:CMR17;writing-mode:lr-tb;fill:#000000;fill-opacity:1;fill-rule:nonzero;stroke:none"
           id="text86"><tspan
             x="0 11.482672 15.769306 29.059595"
             y="0"
             sodipodi:role="line"
             id="tspan88">Time</tspan></text>
<text
           transform="matrix(1,0,0,-1,474.7133,218.713)"
           style="font-variant:normal;font-weight:normal;font-size:14.34619999px;font-family:CMR12;-inkscape-font-specification:CMR12;writing-mode:lr-tb;fill:#000000;fill-opacity:1;fill-rule:nonzero;stroke:none"
           id="text90"><tspan
             x="0 10.142763 17.158054 28.850208 36.640194 44.43018 49.881737 56.89703 62.348587 66.236404 73.251694"
             y="0"
             sodipodi:role="line"
             id="tspan92">Computation</tspan><tspan
             x="-128 -117.85724 -110.84194 -99.149796 -87.844917 -80.054932 -72.264946 -68.377129 -62.136528 -55.121235 -49.669682 -45.78186 -38.766567"
             y="128"
             sodipodi:role="line"
             id="tspan94">Communication</tspan><tspan
             x="-144 -133.67073 -127.43014 -119.64015 -111.85017 -105.60957 -99.368973 -92.353516 -85.338226 -77.548233 -67.333595 -59.156265 -52.140972 -48.253151 -40.850422"
             y="64"
             sodipodi:role="line"
             id="tspan96">Rendezvouspoint</tspan></text>
</g></g></g></svg>